<?xml version="1.0" encoding="UTF-8"?>
<svg id="Artwork" xmlns="http://www.w3.org/2000/svg" baseProfile="tiny" version="1.2" viewBox="0 0 3568.62 580">
  <!-- Generator: Adobe Illustrator 30.0.0, SVG Export Plug-In . SVG Version: 2.1.1 Build 123)  -->
  <g>
    <path d="M1048.67,144.01h-169.77c-5.3,0-10.39,2.11-14.14,5.86l-38.28,38.28c-3.75,3.75-5.86,8.84-5.86,14.14v229.68c0,1.1.9,2,2,2h46c1.1,0,2-.9,2-2v-107.98c0-5.52,4.48-10,10-10h147.99c1.1,0,2-.9,2-2v-45.99c0-1.1-.9-2-2-2h-147.99c-5.52,0-9.99-4.48-9.99-10v-49.99c0-5.52,4.48-10,10-10h168.06c1.1,0,2-.9,2-2v-46c0-1.1-.9-2-2-2Z" fill="#fff"/>
    <path d="M1577.88,188.15l-38.28-38.28c-3.75-3.75-8.84-5.86-14.14-5.86h-133.4c-5.3,0-10.39,2.11-14.14,5.86l-38.28,38.28c-3.75,3.75-5.86,8.84-5.86,14.14v229.68c0,1.1.9,2,2,2h46c1.1,0,2-.9,2-2v-88.01c0-5.52,4.48-10,10-10h129.96c5.52,0,10,4.48,10,10l.02,88.01c0,1.1.9,2,2,2h46c1.1,0,2-.9,2-1.91v-229.68c0-5.39-2.11-10.48-5.86-14.23ZM1533.73,274c0,5.52-4.47,10-9.99,10h-129.96c-5.52,0-9.99-4.48-9.99-10v-70c0-5.52,4.48-10,10-10h129.97c5.52,0,10,4.48,10,10l-.02,70Z" fill="#fff"/>
    <path d="M1290.21,433.96h-139.69c-5.3,0-10.39-2.11-14.14-5.86l-38.28-38.28c-3.75-3.75-5.86-8.84-5.86-14.14v-229.68c0-1.1.9-2,2-2h46c1.1,0,2,.9,2,2v227.96c0,5.52,4.48,10,10,10h137.98c1.1,0,2,.9,2,2v46c0,1.1-.9,2-2,2Z" fill="#fff"/>
    <path d="M1855.65,308.13l-38.28-38.28c-3.75-3.75-8.84-5.86-14.14-5.86l-111.69.04c-5.52,0-10-4.48-10-10l-.04-50.03c0-5.52,4.48-10,10-10h158.01c1.1,0,2-.9,2-2v-46c0-1.11-.9-2-2-2h-159.73c-5.3,0-10.39,2.11-14.14,5.86l-38.28,38.28c-3.75,3.75-5.86,8.84-5.86,14.14l.04,53.46c0,5.3,2.11,10.39,5.86,14.14l38.28,38.28c3.75,3.75,8.84,5.86,14.14,5.86l111.69-.04c5.52,0,10,4.48,10,10v50.02c0,5.52-4.48,10-10,10h-157.93c-1.1,0-2,.9-2,2v46c0,1.1.9,2,2,2h159.65c5.3,0,10.39-2.11,14.14-5.86l38.28-38.28c3.75-3.75,5.86-8.84,5.86-14.14v-53.46c0-5.3-2.11-10.39-5.86-14.14Z" fill="#fff"/>
    <path d="M2431.14,308.13l-38.28-38.28c-3.75-3.75-8.84-5.86-14.14-5.86l-111.69.04c-5.52,0-10-4.48-10-10l-.04-50.03c0-5.52,4.48-10,10-10h158.01c1.1,0,2-.9,2-2v-46c0-1.11-.9-2-2-2h-159.73c-5.3,0-10.39,2.11-14.14,5.86l-38.28,38.28c-3.75,3.75-5.86,8.84-5.86,14.14l.04,53.46c0,5.3,2.11,10.39,5.86,14.14l38.28,38.28c3.75,3.75,8.84,5.86,14.14,5.86l111.69-.04c5.52,0,10,4.48,10,10v50.02c0,5.52-4.48,10-10,10h-157.93c-1.1,0-2,.9-2,2v46c0,1.1.9,2,2,2h159.65c5.3,0,10.39-2.11,14.14-5.86l38.28-38.28c3.75-3.75,5.86-8.84,5.86-14.14v-53.46c0-5.3-2.11-10.39-5.86-14.14Z" fill="#fff"/>
    <path d="M2534.75,204c0-5.52,4.48-10,10-10h148.02c1.1,0,2-.9,2-2v-46c0-1.11-.9-2-2-2h-149.74c-5.3,0-10.39,2.11-14.14,5.86l-38.28,38.28c-3.75,3.75-5.86,8.84-5.86,14.14v173.39c0,5.3,2.11,10.39,5.86,14.14l38.28,38.28c3.75,3.75,8.84,5.86,14.14,5.86h149.74c1.1,0,2-.9,2-2v-46c0-1.1-.9-2-2-2h-148.02c-5.52,0-10-4.48-10-10v-169.97Z" fill="#fff"/>
    <path d="M2986.7,188.15l-38.28-38.28c-3.75-3.75-8.84-5.86-14.14-5.86h-133.46c-5.3,0-10.39,2.11-14.14,5.86l-38.28,38.28c-3.75,3.75-5.86,8.84-5.86,14.14v173.39c0,5.3,2.11,10.39,5.86,14.14l38.28,38.28c3.75,3.75,8.84,5.86,14.14,5.86h133.46c5.3,0,10.39-2.11,14.14-5.86l38.28-38.28c3.75-3.75,5.86-8.84,5.86-14.14v-173.39c0-5.3-2.11-10.39-5.86-14.14ZM2942.56,373.97c0,5.52-4.48,10-10,10h-130.03c-5.52,0-10-4.48-10-10v-169.97c0-5.52,4.48-10,10-10h130.03c5.52,0,10,4.48,10,10v169.97Z" fill="#fff"/>
    <path d="M2157.23,144.01h-46c-1.1,0-2,.9-2,2l-.02,107.98c0,5.52-4.48,10-10,10h-129.95c-5.52,0-10-4.48-10-10v-107.98c0-1.1-.9-2-2-2h-46c-1.1,0-2,.9-2,2v285.96c0,1.1.9,2,2,2h46c1.1,0,2-.9,2-2v-107.98c0-5.52,4.48-10,10-10h129.95c5.52,0,10,4.48,10,10l.02,107.98c0,1.1.9,2,2,2h46c1.1,0,2-.9,2-2V146.01c0-1.1-.9-2-2-2Z" fill="#fff"/>
    <path d="M3290.34,202.29c0-5.3-2.11-10.39-5.86-14.14l-37.51-38.28c-3.75-3.75-8.84-5.86-14.14-5.86h-190.52c-1.11,0-2,.9-2,2v285.96c0,1.1.9,2,2,2h46c1.1,0,2-.9,2-2v-108.08c.05-5.19,4.05-9.43,9.14-9.86h64.65l69.25,119.94h57.73l-69.25-119.94h11.01c5.3,0,10.39-2.11,14.14-5.86l37.51-38.28c3.75-3.75,5.86-8.84,5.86-14.14v-53.46ZM3240.39,254.03c0,5.52-4.48,10-10,10l-130.09-.04c-5.49,0-9.94-4.43-9.99-9.91v-50.18c.05-5.45,4.45-9.85,9.9-9.9h130.18c5.52,0,10,4.48,10,10v50.03Z" fill="#fff"/>
    <path d="M3398.65,194h167.97c1.1,0,2-.9,2-2v-46c0-1.1-.9-2-2-2h-169.68c-5.3,0-10.39,2.11-14.14,5.86l-38.28,38.28c-3.75,3.75-5.86,8.84-5.86,14.14v173.39c0,5.3,2.11,10.39,5.86,14.14l38.28,38.28c3.75,3.75,8.84,5.86,14.14,5.86h169.68c1.11,0,2-.9,2-2v-46c0-1.1-.9-2-2-2h-167.97c-5.52,0-10-4.48-10-10v-49.99c0-5.52,4.48-10,10-10l117.97-.08c1.1,0,2-.9,2-2v-45.99c0-1.1-.9-2-2-2l-117.98.08c-5.52,0-9.99-4.48-9.99-10v-49.99c0-5.52,4.48-10,10-10Z" fill="#fff"/>
  </g>
  <g>
    <g>
      <path d="M122.52,319.54c-2.64-14.99-3.19-29.86-1.92-44.35L1.11,264.73c-2.17,24.7-1.19,50.07,3.31,75.63,4.51,25.56,12.27,49.74,22.76,72.21l108.71-50.69c-6.15-13.18-10.72-27.36-13.37-42.35Z" fill="#fff"/>
      <path d="M159.79,399.28l-91.88,77.09c27.28,32.4,61.36,58.46,99.58,76.35l50.67-108.67c-22.41-10.49-42.38-25.77-58.38-44.77Z" fill="#fff"/>
      <path d="M319.54,457.49c-14.99,2.64-29.87,3.19-44.36,1.92l-10.45,119.49c24.7,2.17,50.08,1.19,75.64-3.31,8.38-1.48,16.61-3.33,24.69-5.48l-31.05-115.86c-4.74,1.27-9.55,2.38-14.47,3.25Z" fill="#fff"/>
      <path d="M260.47,122.53c20.58-3.63,40.95-3.37,60.38.24l51.53-110.75C330.61-.44,285.42-3.64,239.65,4.43,125.28,24.6,38.34,109.61,9.93,214.96l115.84,31.03c16.66-61.78,67.63-111.64,134.7-123.46Z" fill="#fff"/>
      <path d="M399.26,420.22l77.11,91.86c19.43-16.36,36.59-35.15,51.06-55.83l-98.19-68.74c-8.49,12.13-18.59,23.12-29.98,32.71Z" fill="#fff"/>
      <path d="M578.88,264.73l-119.49,10.45c.88,10.01.88,19.92.02,29.66l119.48,10.46c1.46-16.6,1.49-33.5-.02-50.56Z" fill="#fff"/>
    </g>
    <polygon points="425.21 0 313.63 239.29 795.97 0 425.21 0" fill="#ff0046"/>
  </g>
</svg>